<?xml version="1.0" standalone="no"?><!DOCTYPE svg PUBLIC "-//W3C//DTD SVG 1.1//EN" "http://www.w3.org/Graphics/SVG/1.1/DTD/svg11.dtd"><svg t="1622811443783" class="icon" viewBox="0 0 1024 1024" version="1.1" xmlns="http://www.w3.org/2000/svg" p-id="2541" xmlns:xlink="http://www.w3.org/1999/xlink" width="200" height="200"><defs><style type="text/css"></style></defs><path d="M512 816.128L274.432 942.08c-19.968 10.752-44.544 3.072-55.296-16.896-4.096-8.192-5.632-17.408-4.096-26.112l46.592-264.704-193.024-186.88c-16.384-15.872-16.896-41.472-1.024-57.856 6.144-6.656 14.848-10.752 23.552-12.288l266.24-37.376 117.76-241.664c9.728-20.48 34.304-28.672 54.784-18.944 8.192 4.096 14.848 10.752 18.944 18.944l117.76 241.664 266.24 37.376c22.528 3.072 37.888 24.064 34.816 46.08-1.024 9.216-5.632 17.408-12.288 23.552l-193.536 186.88 46.592 264.704c4.096 22.528-10.752 43.52-33.28 47.616-9.216 1.536-18.432 0-26.112-4.096L512 816.128z" p-id="2542"></path><path d="M255.488 985.6c-7.68 0-15.872-1.024-23.552-3.584-20.48-6.144-36.864-19.968-47.104-38.4-8.192-15.36-11.264-33.792-8.192-51.2l43.008-244.736L41.984 475.136c-15.36-14.848-24.064-34.304-24.064-55.808-0.512-20.992 7.68-41.472 22.016-56.32 12.288-12.8 28.672-20.992 46.08-23.552l245.76-34.816L440.832 81.92c9.216-18.944 25.6-33.28 45.568-40.448 19.968-6.656 41.472-5.632 60.416 3.584 15.872 7.68 28.672 20.48 36.352 36.352l109.056 223.232 245.76 34.816c20.992 3.072 39.424 13.824 52.224 30.72 12.8 16.896 17.92 37.888 15.36 58.88-2.56 17.408-10.752 33.792-23.552 46.08l-178.688 172.544 43.008 244.736c3.584 20.992-1.024 41.984-13.312 59.392s-30.208 29.184-51.2 32.768c-17.408 3.072-35.328 0-51.2-8.192L512 859.648l-219.136 116.736c-11.776 6.144-24.576 9.216-37.376 9.216zM512 113.664c-1.024 0-2.048 0.512-2.048 1.536l-117.76 241.664c-5.632 11.264-16.384 19.456-29.184 20.992l-266.24 37.376c-0.512 0-1.024 0.512-1.536 0.512 0 0-0.512 0.512-0.512 2.048 0 1.024 0.512 1.536 1.024 2.048l193.536 186.88c9.216 8.704 13.312 21.504 11.264 34.304l-46.592 264.704c0 0.512 0 1.024 0.512 1.536 0 0 0.512 1.024 1.536 1.024 1.024 0.512 1.536 0 2.048 0l237.568-125.952c11.264-6.144 24.576-6.144 35.84 0l237.568 125.952c0.512 0.512 1.024 0.512 1.536 0.512 0.512 0 1.024 0 1.536-1.024 0.512-1.024 0.512-1.536 0.512-2.048l-46.592-264.704c-2.048-12.8 2.048-25.6 11.264-34.304L928.768 419.84c0.512-0.512 0.512-1.024 0.512-1.536 0-0.512 0-1.024-0.512-2.048s-1.536-1.024-1.536-1.024l-266.24-37.376c-12.8-1.536-23.552-9.728-29.184-20.992l-117.76-241.664c0-0.512-0.512-1.024-1.024-1.024s-0.512-0.512-1.024-0.512z" p-id="2543"></path></svg>