<?xml version="1.0" standalone="no"?><!DOCTYPE svg PUBLIC "-//W3C//DTD SVG 1.1//EN" "http://www.w3.org/Graphics/SVG/1.1/DTD/svg11.dtd"><svg t="1622803234117" class="icon" viewBox="0 0 1024 1024" version="1.1" xmlns="http://www.w3.org/2000/svg" p-id="2259" xmlns:xlink="http://www.w3.org/1999/xlink" width="200" height="200"><defs><style type="text/css"></style></defs><path d="M273.92 974.848c-5.632 0-11.776-1.536-16.896-4.096-12.8-6.656-21.504-19.968-21.504-34.304v-133.12H133.12c-55.296 0-99.84-44.544-99.84-99.84v-542.72c0-55.296 44.544-99.84 99.84-99.84h757.76c55.296 0 99.84 44.544 99.84 99.84v542.72c0 55.296-44.544 99.84-99.84 99.84h-376.832l-216.576 163.84c-7.168 5.12-15.36 7.68-23.552 7.68zM133.12 137.728c-12.8 0-23.04 10.24-23.04 23.04v542.72c0 12.8 10.24 23.04 23.04 23.04h140.8c20.992 0 38.4 17.408 38.4 38.4v94.208l165.376-124.928c6.656-5.12 14.848-7.68 23.04-7.68H890.88c12.8 0 23.04-10.24 23.04-23.04v-542.72c0-12.8-10.24-23.04-23.04-23.04H133.12z" p-id="2260"></path><path d="M265.216 437.76a51.2 50.176 90 1 0 100.352 0 51.2 50.176 90 1 0-100.352 0Z" p-id="2261"></path><path d="M315.392 491.52c-29.184 0-52.736-24.064-52.736-53.76S286.208 384 315.392 384s52.736 24.064 52.736 53.76S344.576 491.52 315.392 491.52z m0-102.4c-26.112 0-47.616 22.016-47.616 48.64s21.504 48.64 47.616 48.64 47.616-22.016 47.616-48.64-21.504-48.64-47.616-48.64z" p-id="2262"></path><path d="M461.824 437.76a51.2 50.176 90 1 0 100.352 0 51.2 50.176 90 1 0-100.352 0Z" p-id="2263"></path><path d="M512 491.52c-29.184 0-52.736-24.064-52.736-53.76S482.816 384 512 384s52.736 24.064 52.736 53.76S541.184 491.52 512 491.52z m0-102.4c-26.112 0-47.616 22.016-47.616 48.64S485.888 486.4 512 486.4c26.112 0 47.616-22.016 47.616-48.64S538.112 389.12 512 389.12z" p-id="2264"></path><path d="M658.432 437.76a51.2 50.176 90 1 0 100.352 0 51.2 50.176 90 1 0-100.352 0Z" p-id="2265"></path><path d="M708.608 491.52c-29.184 0-52.736-24.064-52.736-53.76S679.424 384 708.608 384s52.736 24.064 52.736 53.76S737.792 491.52 708.608 491.52z m0-102.4c-26.112 0-47.616 22.016-47.616 48.64s21.504 48.64 47.616 48.64 47.616-22.016 47.616-48.64-21.504-48.64-47.616-48.64z" p-id="2266"></path></svg>