<?xml version="1.0" standalone="no"?><!DOCTYPE svg PUBLIC "-//W3C//DTD SVG 1.1//EN" "http://www.w3.org/Graphics/SVG/1.1/DTD/svg11.dtd"><svg t="1622801271059" class="icon" viewBox="0 0 1024 1024" version="1.1" xmlns="http://www.w3.org/2000/svg" p-id="1579" xmlns:xlink="http://www.w3.org/1999/xlink" width="200" height="200"><defs><style type="text/css"></style></defs><path d="M875.52 330.752h-185.856V123.392c0-65.536-53.248-118.272-118.272-118.272-60.416 0-110.08 44.544-117.248 103.424-0.512 1.536-1.024 3.584-1.536 5.632-12.288 76.8-40.96 141.824-86.016 193.024-37.376 41.984-71.168 66.56-99.84 71.68H122.88C67.584 378.88 23.04 423.424 23.04 478.72v394.24c0 55.296 44.544 99.84 99.84 99.84h644.608c57.856 0 109.568-38.912 125.44-95.232L1000.96 496.64c3.584-11.264 5.12-23.04 5.12-35.328 0-72.192-58.368-130.56-130.56-130.56zM99.84 872.96v-394.24c0-12.8 10.24-23.04 23.04-23.04h94.72v440.32H122.88c-12.8 0-23.04-10.24-23.04-23.04z" p-id="1580"></path></svg>