<?xml version="1.0" standalone="no"?><!DOCTYPE svg PUBLIC "-//W3C//DTD SVG 1.1//EN" "http://www.w3.org/Graphics/SVG/1.1/DTD/svg11.dtd"><svg t="1622801261526" class="icon" viewBox="0 0 1024 1024" version="1.1" xmlns="http://www.w3.org/2000/svg" p-id="1440" xmlns:xlink="http://www.w3.org/1999/xlink" width="200" height="200"><defs><style type="text/css"></style></defs><path d="M294.4 972.8H122.88c-55.296 0-99.84-44.544-99.84-99.84v-394.24C23.04 423.424 67.584 378.88 122.88 378.88h171.52v593.92zM122.88 455.68c-12.8 0-23.04 10.24-23.04 23.04v394.24c0 12.8 10.24 23.04 23.04 23.04h94.72V455.68H122.88z" p-id="1441"></path><path d="M767.488 972.8h-184.32H256c-10.24 0-19.968-4.096-27.136-11.264-7.168-7.168-11.264-16.896-11.264-27.136V418.304c0-20.992 17.408-38.4 38.4-38.4 30.72 0 68.608-25.088 110.592-72.704C411.648 256 440.32 190.976 452.608 114.176c0.512-2.048 1.024-4.096 1.536-5.632C461.312 49.664 510.976 5.12 571.392 5.12c65.024 0 118.272 52.736 118.272 118.272v207.36H875.52c72.192 0 130.56 58.368 130.56 130.56 0 12.288-1.536 24.064-5.12 35.328l-108.032 380.928c-15.872 56.32-67.584 95.232-125.44 95.232z m-184.832-76.8h184.832c24.064 0 45.056-15.872 51.712-38.912L927.232 476.16c1.536-4.608 2.048-9.728 2.048-14.848 0-29.696-24.064-53.76-53.76-53.76h-224.256c-20.992 0-38.4-17.408-38.4-38.4v-245.76c0-22.528-18.432-41.472-41.472-41.472-22.528 0-40.448 17.408-41.472 39.936 0 4.608-1.024 9.216-3.072 13.312-15.36 87.552-49.664 162.816-102.912 222.72-44.544 50.688-87.552 81.92-130.048 93.184V896h288.768z" p-id="1442"></path></svg>