<?xml version="1.0" standalone="no"?><!DOCTYPE svg PUBLIC "-//W3C//DTD SVG 1.1//EN" "http://www.w3.org/Graphics/SVG/1.1/DTD/svg11.dtd"><svg t="1622801348012" class="icon" viewBox="0 0 1024 1024" version="1.1" xmlns="http://www.w3.org/2000/svg" p-id="1856" xmlns:xlink="http://www.w3.org/1999/xlink" width="200" height="200"><defs><style type="text/css"></style></defs><path d="M1000.96 527.36l-108.032-380.928c-15.872-56.32-67.072-95.232-125.44-95.232H122.88C67.584 51.2 23.04 95.744 23.04 151.04v394.24c0 55.296 44.544 99.84 99.84 99.84h143.872c28.672 5.12 62.976 29.696 99.84 71.68 45.056 51.2 73.728 116.224 86.016 193.024 0.512 1.536 1.024 3.584 1.536 5.632 7.168 58.88 56.832 103.424 117.248 103.424 65.024 0 117.76-52.736 118.272-118.272v-207.36H875.52c72.192 0 130.56-58.368 130.56-130.56 0-11.776-2.048-23.552-5.12-35.328z m-901.12 17.92v-394.24c0-12.8 10.24-23.04 23.04-23.04h94.72v440.32H122.88c-12.8 0-23.04-10.24-23.04-23.04z" p-id="1857"></path></svg>