<?xml version="1.0" standalone="no"?><!DOCTYPE svg PUBLIC "-//W3C//DTD SVG 1.1//EN" "http://www.w3.org/Graphics/SVG/1.1/DTD/svg11.dtd"><svg t="1622801333048" class="icon" viewBox="0 0 1024 1024" version="1.1" xmlns="http://www.w3.org/2000/svg" p-id="1717" xmlns:xlink="http://www.w3.org/1999/xlink" width="200" height="200"><defs><style type="text/css"></style></defs><path d="M294.4 645.12H122.88c-55.296 0-99.84-44.544-99.84-99.84v-394.24C23.04 95.744 67.584 51.2 122.88 51.2h171.52v593.92zM122.88 128c-12.8 0-23.04 10.24-23.04 23.04v394.24c0 12.8 10.24 23.04 23.04 23.04h94.72V128H122.88z" p-id="1718"></path><path d="M571.392 1018.88c-60.416 0-110.08-44.544-117.248-103.424-0.512-2.048-1.024-4.096-1.536-5.632-12.288-76.8-40.96-141.824-86.016-193.024-41.472-47.616-79.872-72.704-110.592-72.704-20.992 0-38.4-17.408-38.4-38.4V89.6c0-10.24 4.096-19.968 11.264-27.136C236.032 55.296 245.76 51.2 256 51.2h511.488c58.368 0 109.568 38.912 125.44 95.232l108.032 380.928c3.072 11.776 5.12 23.552 5.12 35.328 0 72.192-58.368 130.56-130.56 130.56h-185.856v207.36c-0.512 65.536-53.248 118.272-118.272 118.272z m-44.544-130.048c1.536 4.096 2.56 8.704 3.072 13.312 1.024 22.528 18.944 39.936 41.472 39.936 22.528 0 41.472-18.432 41.472-41.472v-245.76c0-20.992 17.408-38.4 38.4-38.4H875.52c29.696 0 53.76-24.064 53.76-53.76 0-5.12-0.512-9.728-2.048-14.848L819.2 166.912a53.76 53.76 0 0 0-51.712-38.912H294.4v444.416c42.496 11.776 84.992 42.496 130.048 93.184 52.736 60.416 87.04 135.68 102.4 223.232z" p-id="1719"></path></svg>