<svg t="1618907357486" class="icon" viewBox="0 0 1063 1024" version="1.1" xmlns="http://www.w3.org/2000/svg" p-id="6302" width="200" height="200"><path d="M343.553903 0h413.977696c83.747212 0 159.881041 34.260223 215.078066 89.457249 55.197026 55.197026 89.457249 131.330855 89.457249 215.078067v413.977695c0 83.747212-34.260223 159.881041-89.457249 215.078067-55.197026 55.197026-131.330855 89.457249-215.078066 89.457249h-413.977696c-83.747212 0-159.881041-34.260223-215.078067-89.457249-55.197026-55.197026-89.457249-131.330855-89.457249-215.078067v-119.910781h-6.66171c-9.516729 0-17.130112-3.806691-22.840148-9.516728-5.710037-5.710037-9.516729-14.275093-9.516729-22.840149 0-9.516729 3.806691-17.130112 9.516729-22.840149 5.710037-5.710037 14.275093-9.516729 22.840148-9.516728h167.494424l46.63197-101.828996c2.855019-5.710037 6.66171-10.468401 12.371748-14.275093 5.710037-3.806691 11.420074-4.758364 18.081784-4.758365s12.371747 1.903346 18.081784 5.710037c4.758364 3.806691 9.516729 8.565056 11.420075 14.275093l102.780669 251.241636 145.605948-438.721189c1.903346-6.66171 6.66171-12.371747 12.371747-16.178439 5.710037-3.806691 12.371747-5.710037 19.98513-5.710037s14.275093 2.855019 19.033457 6.66171c5.710037 3.806691 9.516729 10.468401 11.420075 17.130111l79.94052 281.695168h206.513011c9.516729 0 17.130112 3.806691 22.840149 9.516728 5.710037 5.710037 9.516729 14.275093 9.516729 22.840149 0 9.516729-3.806691 17.130112-9.516729 22.840149-5.710037 5.710037-14.275093 9.516729-22.840149 9.516728h-231.256505c-7.613383 0-14.275093-2.855019-19.98513-6.66171-5.710037-3.806691-9.516729-10.468401-11.420075-17.130111l-57.100371-202.70632-139.895911 421.591078c-1.903346 6.66171-6.66171 12.371747-11.420075 16.178439-5.710037 3.806691-11.420074 6.66171-18.081784 6.66171s-13.32342-1.903346-19.033457-4.758365c-5.710037-3.806691-9.516729-8.565056-12.371747-15.226765l-107.539034-262.66171-23.791821 52.342007c-2.855019 5.710037-6.66171 10.468401-12.371748 14.275093-4.758364 3.806691-11.420074 5.710037-18.081784 5.710037h-116.104089v119.910781c0 65.665428 26.64684 125.620818 70.423792 169.397769 42.825279 42.825279 102.780669 70.423792 169.397769 70.423792h413.977695c65.665428 0 125.620818-26.64684 169.39777-70.423792 42.825279-42.825279 70.423792-102.780669 70.423792-169.397769V307.390335c0-65.665428-26.64684-125.620818-70.423792-169.39777-42.825279-42.825279-102.780669-70.423792-169.39777-70.423792h-413.977695c-65.665428 0-125.620818 26.64684-169.397769 70.423792-42.825279 42.825279-70.423792 102.780669-70.423792 169.39777v102.780669c0 9.516729-3.806691 17.130112-9.516729 22.840148-5.710037 5.710037-14.275093 9.516729-22.840149 9.516729-9.516729 0-17.130112-3.806691-22.840148-9.516729-5.710037-5.710037-9.516729-14.275093-9.516729-22.840148V307.390335c0-83.747212 34.260223-159.881041 89.457249-215.078067 53.29368-58.052045 129.427509-92.312268 213.174721-92.312268z" p-id="6303" fill="#118bee"></path></svg>