<?xml version="1.0" standalone="no"?><!DOCTYPE svg PUBLIC "-//W3C//DTD SVG 1.1//EN" "http://www.w3.org/Graphics/SVG/1.1/DTD/svg11.dtd"><svg t="1618644836194" class="icon" viewBox="0 0 1024 1024" version="1.1" xmlns="http://www.w3.org/2000/svg" p-id="1916" xmlns:xlink="http://www.w3.org/1999/xlink" width="200" height="200"><defs><style type="text/css"></style></defs><path d="M698.61 658.14a36.59 36.59 0 0 1 3.86 2.89l212 200.97a37.65 37.65 0 0 1 4.45 52.21 35.64 35.64 0 0 1-51 4.55l-212-200.93a36.63 36.63 0 0 1-7-8.07 331.83 331.83 0 0 1-214.4 78.49c-186.62 0-337.91-154.82-337.91-345.8S247.89 96.6 434.51 96.6s337.91 154.82 337.91 345.81a349.39 349.39 0 0 1-73.81 215.73zM434 704.79c146 0 264.34-118.36 264.34-264.35S579.94 176.1 434 176.1 169.6 294.45 169.6 440.44 288 704.79 434 704.79z" p-id="1917"></path><path d="M551.07 483.09h-33.78V482l-9-15.68-45.36 169.08a11.33 11.33 0 0 1-7.38 7.3L410 654.92 371.92 513a42.5 42.5 0 0 0 54.69-14.75l7.22 26.92 37.92-141.52a9.44 9.44 0 0 1 11.56-6.65l45.6 12.22-0.08 0.29 0.35-0.2L550.39 426a42.51 42.51 0 0 0 0.68 57.08z m62.26 0a42.5 42.5 0 0 0 1-56.65h59.28v47.21a9.44 9.44 0 0 1-9.44 9.44zM355.5 451.72l-8.32-31-14.73 55-0.43-0.12v0.06H199.84v-47.2a9.45 9.45 0 0 1 9.45-9.44H289l30.27-113a9.44 9.44 0 0 1 11.56-6.68l45.6 12.22-0.15 0.55 0.42-0.11 33.54 125.16a42.53 42.53 0 0 0-54.74 14.59z m36.11 53.2a28.33 28.33 0 1 1 28.32-28.32 28.32 28.32 0 0 1-28.32 28.32zM582.2 482.5a28.33 28.33 0 1 1 28.32-28.33 28.32 28.32 0 0 1-28.32 28.33z" p-id="1918"></path></svg>