<?xml version="1.0" standalone="no"?><!DOCTYPE svg PUBLIC "-//W3C//DTD SVG 1.1//EN" "http://www.w3.org/Graphics/SVG/1.1/DTD/svg11.dtd"><svg t="1618642804182" class="icon" viewBox="0 0 1136 1024" version="1.1" xmlns="http://www.w3.org/2000/svg" p-id="1419" xmlns:xlink="http://www.w3.org/1999/xlink" width="221.875" height="200"><defs><style type="text/css"></style></defs><path d="M1079.168215 0 511.184944 0c-31.23908 0-56.798327 25.559247-56.798327 56.798327l0 113.596654L113.596654 170.394981c-62.47816 0-113.596654 51.118494-113.596654 113.596654l0 454.386617c0 62.47816 51.118494 113.596654 113.596654 113.596654l59.638243 0c17.039498 0 25.559247 11.359665 22.719331 28.399164l-14.199582 76.677742c-11.359665 62.47816 22.719331 85.197491 76.677742 51.118494l207.313894-124.95632c28.399164-17.039498 73.837825-28.399164 105.076905-28.399164l227.193308 0c62.47816 0 113.596654-51.118494 113.596654-113.596654l0-193.114312 0 0 19.879414 14.199582C979.771143 596.382435 1022.369888 573.663104 1022.369888 511.184944l0 28.399164c0-14.199582 11.359665-28.399164 28.399164-28.399164l28.399164 0c31.23908 0 56.798327-25.559247 56.798327-56.798327L1135.966542 56.798327C1135.966542 25.559247 1110.407295 0 1079.168215 0zM851.974907 738.378252c0 31.23908-25.559247 56.798327-56.798327 56.798327l-241.39289 0c-31.23908 0-79.517658 14.199582-105.076905 31.23908l-184.594563 116.436571c-14.199582 8.519749-22.719331 2.839916-17.039498-11.359665L264.112221 851.974907c5.679833-31.23908-14.199582-56.798327-45.438662-56.798327L113.596654 795.17658c-31.23908 0-56.798327-25.559247-56.798327-56.798327L56.798327 283.991636c0-31.23908 25.559247-56.798327 56.798327-56.798327l681.579925 0c31.23908 0 56.798327 25.559247 56.798327 56.798327L851.974907 738.378252zM1079.168215 425.987453c0 17.039498-11.359665 28.399164-28.399164 28.399164l-28.399164 0c-31.23908 0-56.798327 25.559247-56.798327 56.798327l0-17.039498c0 17.039498-11.359665 22.719331-22.719331 14.199582L908.773234 485.625697l0 0L908.773234 283.991636c0-62.47816-51.118494-113.596654-113.596654-113.596654L511.184944 170.394981 511.184944 85.197491c0-14.199582 14.199582-28.399164 28.399164-28.399164l511.184944 0c14.199582 0 28.399164 14.199582 28.399164 28.399164L1079.168215 425.987453z" fill="#e0620d" p-id="1420"></path><path d="M539.584108 567.983271 198.794145 567.983271c-17.039498 0-28.399164 11.359665-28.399164 28.399164 0 17.039498 14.199582 28.399164 28.399164 28.399164l340.789963 0c17.039498 0 28.399164-11.359665 28.399164-28.399164C567.983271 579.342937 553.783689 567.983271 539.584108 567.983271z" fill="#e0620d" p-id="1421"></path><path d="M709.979089 397.58829 198.794145 397.58829c-14.199582 0-28.399164 11.359665-28.399164 28.399164 0 17.039498 11.359665 28.399164 28.399164 28.399164l511.184944 0c14.199582 0 28.399164-11.359665 28.399164-28.399164C738.378252 408.947955 727.018587 397.58829 709.979089 397.58829z" fill="#e0620d" p-id="1422"></path></svg>