<?xml version="1.0" standalone="no"?><!DOCTYPE svg PUBLIC "-//W3C//DTD SVG 1.1//EN" "http://www.w3.org/Graphics/SVG/1.1/DTD/svg11.dtd"><svg t="1618642785099" class="icon" viewBox="0 0 1049 1024" version="1.1" xmlns="http://www.w3.org/2000/svg" p-id="1179" xmlns:xlink="http://www.w3.org/1999/xlink" width="204.8828125" height="200"><defs><style type="text/css"></style></defs><path d="M140.361338 210.799369a31.32895 31.32895 0 0 1-27.661271-45.927954l9.69169-18.440846a31.322803 31.322803 0 0 1 55.424989 29.198007l-9.701934 18.440847A31.30846 31.30846 0 0 1 140.361338 210.799369z" fill="#EE7F00" p-id="1180"></path><path d="M856.562848 615.063711a192.542931 192.542931 0 0 1-161.726226-88.188228 199.642657 199.642657 0 0 1-164.768967 88.188228 192.6044 192.6044 0 0 1-163.221984-90.534313 209.088468 209.088468 0 0 1-31.994869 35.447405c-39.545371 35.006874-91.425621 55.086907-142.322358 55.086908A192.6044 192.6044 0 0 1 12.863372 353.254911a31.564583 31.564583 0 0 1 1.485512-3.411557l0.174164-0.327837 41.092354-77.984293a31.318705 31.318705 0 1 1 55.414744 29.198008l-40.190801 76.293881a129.905521 129.905521 0 0 0 121.689099 175.403188c75.89433 0 145.027015-61.910021 145.027015-129.885031a31.318705 31.318705 0 0 1 62.63741 0 130.02846 130.02846 0 0 0 129.874786 129.885031c72.626202 0 133.982997-59.481976 133.982997-129.885031a31.318705 31.318705 0 1 1 62.63741 0 129.885031 129.885031 0 1 0 237.005861-73.43555 30.560581 30.560581 0 0 1-1.905554-3.145189L812.530204 62.63741H236.479129l-14.40435 27.353922a31.318705 31.318705 0 0 1-55.414745-29.198007l23.214977-44.053134a31.32895 31.32895 0 0 1 27.66127-16.719701h613.895791a31.30846 31.30846 0 0 1 27.66127 16.719701l157.290178 298.424126a192.522441 192.522441 0 0 1-159.820672 299.899394z m-814.327305-251.000415z" fill="#EE7F00" p-id="1181"></path><path d="M880.341296 1023.999734H177.007398a94.519585 94.519585 0 0 1-94.406891-94.406891V563.296156a31.318705 31.318705 0 0 1 46.624608-27.323188 129.854296 129.854296 0 0 0 63.303329 16.453333c75.89433 0 145.027015-61.910021 145.027015-129.885031a31.318705 31.318705 0 0 1 62.63741 0 130.02846 130.02846 0 0 0 129.874786 129.885031c72.626202 0 133.982997-59.481976 133.982997-129.885031a31.318705 31.318705 0 1 1 62.63741 0 129.905521 129.905521 0 0 0 199.83731 109.456671 31.318705 31.318705 0 0 1 48.212569 26.370411v100.635799a31.318705 31.318705 0 1 1-62.637409 0V606.908758a192.6044 192.6044 0 0 1-217.26391-80.033275 199.642657 199.642657 0 0 1-164.768967 88.188228 192.6044 192.6044 0 0 1-163.221984-90.534313 209.088468 209.088468 0 0 1-31.994869 35.447405c-39.545371 35.006874-91.425621 55.086907-142.322358 55.086908a193.044931 193.044931 0 0 1-47.290527-5.890826v320.419958a31.759236 31.759236 0 0 0 31.759236 31.759236h703.344143a31.564583 31.564583 0 0 0 22.456853-9.302383c8.861851-8.861851 9.302383-20.264442 9.302383-22.467098V760.008767a31.318705 31.318705 0 1 1 62.637409 0v169.584076c0 11.761162-2.694413 41.799253-27.66127 66.755865a93.822931 93.822931 0 0 1-66.735375 27.651026z" fill="#EE7F00" p-id="1182"></path><path d="M644.575069 263.120149H552.206916V170.782731a27.697127 27.697127 0 0 0-55.394254 0v92.337418h-92.296439a27.697127 27.697127 0 1 0 0 55.394255H496.884376v92.337418a27.697127 27.697127 0 1 0 55.394255 0V318.514404h92.327173a27.697127 27.697127 0 1 0 0-55.394255z" fill="#EE7F00" p-id="1183"></path></svg>