<svg t="1618907413887" class="icon" viewBox="0 0 1024 1024" version="1.1" xmlns="http://www.w3.org/2000/svg" p-id="8439" width="200" height="200"><path d="M450.1 832 108.4 832c-24.5 0-44.4-19.9-44.4-44.4L64 384l832 0L896 172.4c0-59.8-48.6-108.4-108.4-108.4L704 64l0-64-64 0 0 64L256 64l0-64-64 0 0 64-83.6 0C48.6 64 0 112.6 0 172.4l0 615.2c0 59.8 48.6 108.4 108.4 108.4l341.7 0c17.7 0 32-14.3 32-32S467.8 832 450.1 832zM64 172.4c0-24.5 19.9-44.4 44.4-44.4L192 128l0 96 64 0 0-96 384 0 0 96 64 0 0-96 83.6 0c24.5 0 44.4 19.9 44.4 44.4l0 147.6L64 320 64 172.4z" fill="#118bee" p-id="8440"></path><path d="M160 480l224 0 0 64-224 0 0-64Z" fill="#118bee" p-id="8441"></path><path d="M160 672l224 0 0 64-224 0 0-64Z" fill="#118bee" p-id="8442"></path><path d="M800 576 736 576 736 672 736 736 800 736 896 736 896 672 800 672Z" fill="#118bee" p-id="8443"></path><path d="M949 523c-48.4-48.4-112.6-75-181-75s-132.7 26.6-181 75c-48.4 48.4-75 112.6-75 181s26.6 132.7 75 181c48.4 48.4 112.6 75 181 75s132.7-26.6 181-75c48.4-48.4 75-112.6 75-181S997.4 571.3 949 523zM768 896c-105.9 0-192-86.1-192-192s86.1-192 192-192 192 86.1 192 192S873.9 896 768 896z" fill="#118bee" p-id="8444"></path></svg>