<?xml version="1.0" standalone="no"?><!DOCTYPE svg PUBLIC "-//W3C//DTD SVG 1.1//EN" "http://www.w3.org/Graphics/SVG/1.1/DTD/svg11.dtd"><svg t="1618642799159" class="icon" viewBox="0 0 1024 1024" version="1.1" xmlns="http://www.w3.org/2000/svg" p-id="1429" xmlns:xlink="http://www.w3.org/1999/xlink" width="200" height="200"><defs><style type="text/css"></style></defs><path d="M890.434783 0H133.565217a89.043478 89.043478 0 0 0-89.043478 89.043478v845.913044a89.043478 89.043478 0 0 0 89.043478 89.043478h756.869566a89.043478 89.043478 0 0 0 89.043478-89.043478V89.043478a89.043478 89.043478 0 0 0-89.043478-89.043478z m22.260869 934.956522a22.26087 22.26087 0 0 1-22.260869 22.260869H133.565217a22.26087 22.26087 0 0 1-22.260869-22.260869V89.043478a22.26087 22.26087 0 0 1 22.260869-22.260869h756.869566a22.26087 22.26087 0 0 1 22.260869 22.260869z" fill="#FF9400" p-id="1430"></path><path d="M779.130435 674.504348v-24.932174a111.304348 111.304348 0 0 0-222.608696 0v89.043478a66.782609 66.782609 0 0 1-133.565217 0v-155.826087a200.347826 200.347826 0 0 0 200.347826-200.347826v-133.565217a66.782609 66.782609 0 0 0-66.782609-66.782609h-26.935652a55.652174 55.652174 0 1 0 0 44.521739H556.521739a22.26087 22.26087 0 0 1 22.26087 22.26087v133.565217a155.826087 155.826087 0 0 1-155.826087 155.826087h-44.521739a155.826087 155.826087 0 0 1-155.826087-155.826087v-133.565217a22.26087 22.26087 0 0 1 22.260869-22.26087h26.935652a55.652174 55.652174 0 1 0 0-44.521739H244.869565a66.782609 66.782609 0 0 0-66.782608 66.782609v133.565217a200.347826 200.347826 0 0 0 200.347826 200.347826v155.826087a111.304348 111.304348 0 0 0 222.608695 0v-89.043478a66.782609 66.782609 0 0 1 133.565218 0v24.932174a100.173913 100.173913 0 1 0 44.521739 0z m-22.26087 153.154782a55.652174 55.652174 0 1 1 55.652174-55.652173 55.874783 55.874783 0 0 1-55.652174 55.652173z" fill="#FF9400" p-id="1431"></path></svg>